<svg xmlns="http://www.w3.org/2000/svg" width="489.002" height="155" viewBox="0 0 489.002 155">
  <g id="Group_42" data-name="Group 42" transform="translate(-438.499 -1469)">
    <path id="Path_358" data-name="Path 358" d="M740.917,694.969a3.564,3.564,0,0,0,2.524-6.2l-.253-.969a9.575,9.575,0,0,1,17.748-.336c4.318,9.846,9.881,20.028,7.267,30.943,17.594-38.227,11.037-85.508-15.81-117.8-7.374-3.971-13.387-11.093-15.015-19.414,3.642,1.2,8.14-1.8,5.374-5.6-1.2-1.45-2.405-2.889-3.6-4.339,13.65-14.818,30.3,8.108,15.31,28.074a114.266,114.266,0,0,1,13.024,19.951,48.045,48.045,0,0,1,2.656-22.342c2.682-6.649,7.775-12.276,12.252-18.044,5.443-7.029,16.813-3.918,17.639,4.928-5.069,1.72-5.659,9.071.166,10.02-1.367,16.484-11.982,31.721-26.732,39.085a114.711,114.711,0,0,1,6.725,47.885c2.435-19.011,22.771-23.812,36.944-31.494a5.549,5.549,0,0,1,8.516,5.54,32.054,32.054,0,0,0-5.589,3.017,4.844,4.844,0,0,0,2.335,8.821c-7.011,17.839-25.461,29.95-44.529,30.064a117.932,117.932,0,0,1-7.7,23.2l-28.3.269c-.1-.313-.2-.637-.293-.951a32.152,32.152,0,0,0,7.826-.541c-7.008-8.139-12.407-12.274-8.483-23.767Z" transform="translate(-74.55 902.48)" fill="#006357"/>
    <line id="Line_6" data-name="Line 6" y1="0.5" x2="489" transform="translate(438.5 1622.5)" fill="none" stroke="#707070" stroke-width="2"/>
  </g>
</svg>
