<svg xmlns="http://www.w3.org/2000/svg" width="848.282" height="615.234" viewBox="0 0 848.282 615.234">
  <g id="undraw_portfolio_re_qwm5" transform="translate(0)">
    <path id="Path_294" data-name="Path 294" d="M488.818,329.923l-4.269-.024q-2.033-1.271-4.086-2.513c-.847-.535-1.7-1.05-2.562-1.574q-21.243-12.974-42.751-24.889Q413.661,289,391.956,278.171a1.789,1.789,0,0,1-1.029-2.046.517.517,0,0,1,.071-.15c.2-.379.653-.536,1.311-.213,1.775.89,3.56,1.78,5.335,2.69q21.764,11.012,43.342,23.122t42.879,25.28c.3.182.6.373.9.555C486.118,328.247,487.463,329.085,488.818,329.923Z" transform="translate(-175.858 -142.383)" fill="#fff"/>
    <path id="Path_295" data-name="Path 295" d="M543.868,330.23l-2.64-.015c-.6-.833-1.181-1.667-1.776-2.5q-20.985-29.428-41.962-58.855-34.352-48.178-68.682-96.355a1.7,1.7,0,0,1-.3-.582c-.2-.711.327-1.128,1-1.054a2.006,2.006,0,0,1,1.395.888q19.259,27.018,38.509,54.016,34.173,47.937,68.336,95.863c1.449,2.028,2.9,4.066,4.346,6.094C542.687,328.564,543.282,329.4,543.868,330.23Z" transform="translate(-175.858 -142.383)" fill="#fff"/>
    <path id="Path_296" data-name="Path 296" d="M602.684,314.9c-.135,4.449-.429,8.828-.814,13.166q-.112,1.244-.224,2.489l-2.77-.015c.085-.829.169-1.659.244-2.489.585-6.267,1-12.6,1.057-19.114a266.657,266.657,0,0,0-5.25-53.75,334.672,334.672,0,0,0-16.259-55.842,383.493,383.493,0,0,0-26.6-55.25,1.476,1.476,0,0,1-.245-.981c.114-.789,1.165-1.024,1.951-.269a2.291,2.291,0,0,1,.4.5q1.917,3.3,3.763,6.611A383.221,383.221,0,0,1,583.4,205.4a333.084,333.084,0,0,1,15.158,55.926,263.075,263.075,0,0,1,4.131,53.574Z" transform="translate(-175.858 -142.383)" fill="#fff"/>
    <path id="Path_297" data-name="Path 297" d="M791.578,328.857h-607a8.728,8.728,0,0,0-8.72,8.72V748.9a8.728,8.728,0,0,0,8.72,8.72h607a8.713,8.713,0,0,0,6.631-3.06,2.039,2.039,0,0,0,.19-.24,8.162,8.162,0,0,0,1.25-2.11,8.508,8.508,0,0,0,.659-3.31V337.577A8.729,8.729,0,0,0,791.578,328.857Zm6.24,420.04a6.175,6.175,0,0,1-1.03,3.42,6.446,6.446,0,0,1-2.36,2.12,6.185,6.185,0,0,1-2.85.69h-607a6.238,6.238,0,0,1-6.23-6.23V337.577a6.238,6.238,0,0,1,6.23-6.23h607a6.24,6.24,0,0,1,6.24,6.231Z" transform="translate(-175.858 -142.383)" fill="#3f3d56"/>
    <rect id="Rectangle_34" data-name="Rectangle 34" width="621.957" height="2.493" transform="translate(1.243 221.423)" fill="#3f3d56"/>
    <circle id="Ellipse_37" data-name="Ellipse 37" cx="7.478" cy="7.478" r="7.478" transform="translate(14.953 197.692)" fill="#3f3d56"/>
    <circle id="Ellipse_38" data-name="Ellipse 38" cx="7.478" cy="7.478" r="7.478" transform="translate(36.454 197.692)" fill="#3f3d56"/>
    <circle id="Ellipse_39" data-name="Ellipse 39" cx="7.478" cy="7.478" r="7.478" transform="translate(57.954 197.692)" fill="#3f3d56"/>
    <path id="Path_298" data-name="Path 298" d="M644.177,421.509h-312a13,13,0,1,1,0-26h312a13,13,0,0,1,0,26Zm-312-24a11,11,0,0,0,0,22h312a11,11,0,1,0,0-22Z" transform="translate(-175.858 -142.383)" fill="#3f3d56"/>
    <path id="Path_299" data-name="Path 299" d="M358.083,574.127h-120a17.019,17.019,0,0,1-17-17v-56a17.019,17.019,0,0,1,17-17h120a17.019,17.019,0,0,1,17,17v56a17.019,17.019,0,0,1-17,17Z" transform="translate(-175.858 -142.383)" fill="#00796b"/>
    <path id="Path_300" data-name="Path 300" d="M548.083,574.127h-120a17.019,17.019,0,0,1-17-17v-56a17.019,17.019,0,0,1,17-17h120a17.019,17.019,0,0,1,17,17v56a17.019,17.019,0,0,1-17,17Z" transform="translate(-175.858 -142.383)" fill="#00796b"/>
    <path id="Path_301" data-name="Path 301" d="M738.083,574.127h-120a17.019,17.019,0,0,1-17-17v-56a17.019,17.019,0,0,1,17-17h120a17.019,17.019,0,0,1,17,17v56a17.019,17.019,0,0,1-17,17Z" transform="translate(-175.858 -142.383)" fill="#00796b"/>
    <path id="Path_302" data-name="Path 302" d="M358.083,692.127h-120a17.019,17.019,0,0,1-17-17v-56a17.019,17.019,0,0,1,17-17h120a17.019,17.019,0,0,1,17,17v56a17.019,17.019,0,0,1-17,17Z" transform="translate(-175.858 -142.383)" fill="#00796b"/>
    <path id="Path_303" data-name="Path 303" d="M548.083,692.127h-120a17.019,17.019,0,0,1-17-17v-56a17.019,17.019,0,0,1,17-17h120a17.019,17.019,0,0,1,17,17v56a17.019,17.019,0,0,1-17,17Z" transform="translate(-175.858 -142.383)" fill="#00796b"/>
    <path id="Path_304" data-name="Path 304" d="M738.083,692.127h-120a17.019,17.019,0,0,1-17-17v-56a17.019,17.019,0,0,1,17-17h120a17.019,17.019,0,0,1,17,17v56a17.019,17.019,0,0,1-17,17Z" transform="translate(-175.858 -142.383)" fill="#00796b"/>
    <circle id="Ellipse_40" data-name="Ellipse 40" cx="33" cy="33" r="33" transform="translate(664.115 215.744)" fill="#2f2e41"/>
    <path id="Path_305" data-name="Path 305" d="M790.3,562.8a10.743,10.743,0,0,1,6.253-15.24L838.37,459.1,857.5,472.51l-47.119,82.735A10.8,10.8,0,0,1,790.3,562.8Z" transform="translate(-175.858 -142.383)" fill="#ffb8b8"/>
    <path id="Path_306" data-name="Path 306" d="M826.133,470.841a4.811,4.811,0,0,1,.552-3.973l13-20.382a13.377,13.377,0,1,1,24.456,10.85l-6.549,23.353a4.817,4.817,0,0,1-6.6,3.1l-22.209-9.931a4.811,4.811,0,0,1-2.647-3.014Z" transform="translate(-175.858 -142.383)" fill="#00796b"/>
    <path id="Path_307" data-name="Path 307" d="M931.348,571.566a10.743,10.743,0,0,1-7.444-14.694L884.3,467.4l22.655-5.706,31.8,89.742a10.8,10.8,0,0,1-7.412,20.13Z" transform="translate(-175.858 -142.383)" fill="#ffb8b8"/>
    <path id="Path_308" data-name="Path 308" d="M766.285,591.358l-11.52,4.2L733.1,553.115l17-6.191Z" fill="#ffb8b8"/>
    <path id="Path_309" data-name="Path 309" d="M923.479,735.693h23.644V750.58H908.592A14.887,14.887,0,0,1,923.479,735.693Z" transform="matrix(0.94, -0.342, 0.342, 0.94, -374.112, 219.908)" fill="#2f2e41"/>
    <path id="Path_310" data-name="Path 310" d="M910.7,706.9l-43.887-76.8a4.822,4.822,0,0,1,.052-4.868l19.762-32.937a4.817,4.817,0,0,1,8.661.841L932.647,696.6a4.8,4.8,0,0,1-2.469,5.99l-13.239,6.271a4.773,4.773,0,0,1-2.044.459,4.84,4.84,0,0,1-4.2-2.422Z" transform="translate(-175.858 -142.383)" fill="#2f2e41"/>
    <circle id="Ellipse_41" data-name="Ellipse 41" cx="24.561" cy="24.561" r="24.561" transform="translate(669.55 235.678)" fill="#ffb8b8"/>
    <path id="Path_311" data-name="Path 311" d="M835.034,513.874c-19.342-42.889.157-66.859,9.439-75.173a14.557,14.557,0,0,1,9.73-3.721h34.6a14.576,14.576,0,0,1,13.038,21.095l-23.13,46.259-43.488,11.959Z" transform="translate(-175.858 -142.383)" fill="#00796b"/>
    <path id="Path_312" data-name="Path 312" d="M885.651,483.434a4.812,4.812,0,0,1-2.645-3.015l-6.924-23.163a13.377,13.377,0,1,1,24.2-11.413l13.39,20.223a4.817,4.817,0,0,1-1.974,7.022L889.662,483.4a4.812,4.812,0,0,1-4.011.033Z" transform="translate(-175.858 -142.383)" fill="#00796b"/>
    <path id="Path_313" data-name="Path 313" d="M687.147,602.955h-12.26l-5.832-47.288h18.094Z" fill="#ffb8b8"/>
    <path id="Path_314" data-name="Path 314" d="M666.13,599.451h23.644v14.887H651.243A14.887,14.887,0,0,1,666.13,599.451Z" fill="#2f2e41"/>
    <path id="Path_315" data-name="Path 315" d="M857.81,727.286l-19.628-2.264a4.818,4.818,0,0,1-4.223-5.42l17.518-131.9a3.753,3.753,0,0,0-.073-1.377L833.8,513.68a4.761,4.761,0,0,1,.754-3.926c2.73-3.764,12.086-12.537,39.914-12.7h.03a4.834,4.834,0,0,1,4.4,2.826l3.712,8.166a3.763,3.763,0,0,0,1.253,1.513c5.11,3.617,29.862,23.918,15.328,68.488C884.9,621.853,866.6,706.9,863.073,723.5a4.791,4.791,0,0,1-4.7,3.814,4.933,4.933,0,0,1-.566-.033Z" transform="translate(-175.858 -142.383)" fill="#2f2e41"/>
    <path id="Path_316" data-name="Path 316" d="M895.777,387.173a33.4,33.4,0,0,1-19.091,5.9,20.471,20.471,0,0,0,8.114,3.338,67.359,67.359,0,0,1-27.514.155,17.806,17.806,0,0,1-5.76-1.978,7.289,7.289,0,0,1-3.555-4.755c-.6-3.449,2.083-6.582,4.876-8.693a35.967,35.967,0,0,1,30.224-6.04c3.376.873,6.759,2.347,8.952,5.059s2.843,6.892.753,9.684Z" transform="translate(-175.858 -142.383)" fill="#2f2e41"/>
    <path id="Path_317" data-name="Path 317" d="M879.378,370.088c-2.806-.934-5.693-1.914-7.916-3.864s-3.634-5.139-2.635-7.922c.963-2.681,3.9-4.248,6.738-4.459s5.638.669,8.351,1.537c-1.227-1.854-2.495-5.449-3.6-9.241-2.532-8.652,8.02-16.553,17.011-15.9q.4.029.769.083c9.066,1.323,13.769,4.781,20.1,11.4,7.921,8.284,12.063,19.461,14.837,30.582s4.4,22.564,8.3,33.341,10.483,21.137,20.546,26.622a33.981,33.981,0,0,0,35.26-2.173,30.442,30.442,0,0,1-34.972,34.484c-12.992-2.1-23.4-12.563-28.958-24.491s-7.077-25.281-8.471-38.367-2.807-26.434-8.185-38.445c-2.177-4.861-5.381-9.809-11.107-10.585a6.89,6.89,0,0,0-7.387,3.959c-2.518,6.094,6.1,11.254,3.889,17.061a6.393,6.393,0,0,1-5.692,3.887c-4.164.274-7.584-2.113-10.806-4.416C878.859,368.472,879.378,370.088,879.378,370.088Z" transform="translate(-175.858 -142.383)" fill="#2f2e41"/>
    <path id="Path_318" data-name="Path 318" d="M1023.14,757.617h-230a1,1,0,0,1,0-2h230a1,1,0,0,1,0,2Z" transform="translate(-175.858 -142.383)" fill="#3f3d56"/>
  </g>
</svg>
