<svg xmlns="http://www.w3.org/2000/svg" width="787" height="521.59" viewBox="0 0 787 521.59">
  <g id="Group_43" data-name="Group 43" transform="translate(104 -2027)">
    <path id="Path_359" data-name="Path 359" d="M556.072,656.52H264.848a13.845,13.845,0,0,1-13.829-13.829V247.342a13.845,13.845,0,0,1,13.829-13.829H556.072A13.845,13.845,0,0,1,569.9,247.342V642.691a13.845,13.845,0,0,1-13.829,13.829Z" transform="translate(38.862 1826.953) rotate(7)" fill="#fff" stroke="#707070" stroke-width="1"/>
    <text id="_1_" data-name="1#" transform="translate(-104 2027)" fill="#707070" font-size="100" font-family="InkFree, Ink Free"><tspan x="-52.4" y="91">1#</tspan></text>
    <text id="Provide_a_thoroughly_simple_user-friendly_and_interactive_interface_as_well_as_a_smooth_and_seamless_experience_across_the_app" data-name="Provide a thoroughly simple, user-friendly and interactive interface, as well as a smooth and seamless experience across the app" transform="translate(272.96 2184) rotate(7)" fill="#707070" font-size="22" font-family="Tahoma"><tspan x="30.926" y="22">Provide a thoroughly </tspan><tspan x="11.494" y="59">simple, user-friendly and </tspan><tspan x="17.998" y="96">interactive interface, as </tspan><tspan x="28.418" y="133">well as a smooth and </tspan><tspan x="31.855" y="170">seamless experience </tspan><tspan x="60.483" y="207">across the app</tspan></text>
  </g>
</svg>
