<svg xmlns="http://www.w3.org/2000/svg" width="787" height="502.104" viewBox="0 0 787 502.104">
  <g id="Group_46" data-name="Group 46" transform="translate(-420 -2643.06)">
    <path id="Path_360" data-name="Path 360" d="M556.072,656.52H264.848a13.845,13.845,0,0,1-13.829-13.829V247.342a13.845,13.845,0,0,1,13.829-13.829H556.072A13.845,13.845,0,0,1,569.9,247.342V642.691a13.845,13.845,0,0,1-13.829,13.829Z" transform="matrix(0.951, -0.309, 0.309, 0.951, 458.107, 2597.715)" fill="#fff" stroke="#707070" stroke-width="1"/>
    <text id="_4_" data-name="4#" transform="translate(420 2673)" fill="#707070" font-size="100" font-family="InkFree, Ink Free"><tspan x="-65.3" y="91">4#</tspan></text>
    <text id="Provide_cloud_computing_solutions_for_storage_security_synchronization_collaboration_and_many_more_and_business_features_like_stats_notes_feedback_and_payment" data-name="Provide cloud computing solutions for storage, security, synchronization, collaboration and many more; and business features like stats, notes/feedback and payment" transform="matrix(0.951, -0.309, 0.309, 0.951, 813.5, 2808.143)" fill="#707070" font-size="22" font-family="Tahoma"><tspan x="12.079" y="22">Provide cloud computing </tspan><tspan x="28.95" y="59">solutions for storage, </tspan><tspan x="8.583" y="96">security, synchronization, </tspan><tspan x="18.073" y="133">collaboration and many </tspan><tspan x="36.405" y="170">more; and business </tspan><tspan x="8.378" y="207">features like stats, notes/</tspan><tspan x="20.893" y="244">feedback and payment</tspan></text>
  </g>
</svg>
