<svg xmlns="http://www.w3.org/2000/svg" width="269.914" height="342.263" viewBox="0 0 269.914 342.263">
  <g id="undraw_certificate_re_yadi" transform="translate(-39.58 -178.502)">
    <path id="Path_348" data-name="Path 348" d="M586.484,300.308c-11.26,49.99-40.14,166.71-69.44,191.12a17.092,17.092,0,0,1-6.52,3.85c-102.99,25.09-135.99-38.91-135.99-38.91s27.6-13.45,28.3-39.74l55.66,17.27,48.52-109.19,7.14-6.66.04-.04Z" transform="translate(-305.93 -105.865)" fill="#3f3d56"/>
    <path id="Path_351" data-name="Path 351" d="M345.51,603.32l.822-296.389a22.652,22.652,0,0,1,22.689-22.564l223.839.621a22.652,22.652,0,0,1,22.564,22.689L614.6,604.066a22.652,22.652,0,0,1-22.689,22.564l-223.839-.621A22.652,22.652,0,0,1,345.51,603.32Z" transform="translate(-305.93 -105.865)" fill="#e6e6e6"/>
    <path id="Path_352" data-name="Path 352" d="M362.928,513.846l.528-190.546a21.214,21.214,0,0,1,21.249-21.132l192.371.533a21.215,21.215,0,0,1,21.133,21.249L597.478,587.7a21.215,21.215,0,0,1-21.25,21.132l-119.17-.33a94.5,94.5,0,0,1-94.13-94.653Z" transform="translate(-305.93 -105.865)" fill="#fff"/>
    <path id="Path_353" data-name="Path 353" d="M555.034,385.868h-150a9,9,0,1,1,0-18h150a9,9,0,0,1,0,18Z" transform="translate(-305.93 -105.865)" fill="#006357"/>
    <path id="Path_354" data-name="Path 354" d="M438.034,344.368h-33a9,9,0,0,1,0-18h33a9,9,0,1,1,0,18Z" transform="translate(-305.93 -105.865)" fill="#00796b"/>
    <path id="Path_355" data-name="Path 355" d="M555.034,427.368h-150a9,9,0,1,1,0-18h150a9,9,0,0,1,0,18Z" transform="translate(-305.93 -105.865)" fill="#006357"/>
    <path id="Path_356" data-name="Path 356" d="M555.034,468.868h-150a9,9,0,0,1,0-18h150a9,9,0,0,1,0,18Z" transform="translate(-305.93 -105.865)" fill="#006357"/>
    <path id="Path_385" data-name="Path 385" d="M35.811,0A35.811,35.811,0,1,1,0,35.811,35.811,35.811,0,0,1,35.811,0Z" transform="translate(201.156 400.732)" fill="#006357"/>
    <path id="Path_357" data-name="Path 357" d="M538.012,561.045a3.983,3.983,0,0,1-3.186-1.594l-9.77-13.027a3.983,3.983,0,1,1,6.374-4.78l6.392,8.522,16.416-24.624a3.984,3.984,0,0,1,6.629,4.419l-19.54,29.309a3.985,3.985,0,0,1-3.2,1.773Z" transform="translate(-305.93 -105.865)" fill="#fff"/>
  </g>
</svg>
