<svg xmlns="http://www.w3.org/2000/svg" width="640.37" height="576.905" viewBox="0 0 640.37 576.905">
  <g id="undraw_to_the_moon_re_q21i" transform="translate(0 -39.095)">
    <path id="Path_364" data-name="Path 364" d="M820.89,271.14c-40.29,37.5-93.66,61.56-148.48,67.33q-8.07.855-16.18,1.17c-1.2.05-2.4.08-3.61.11-1.96.05-3.93.07-5.89.07q-3.525,0-7.05-.1a255.887,255.887,0,0,1-40.52-4.43c-.49-.1-.97-.19-1.46-.29q-3.165-.615-6.31-1.32-6.03-1.335-12-2.96c-1.29-.35-2.58-.71-3.87-1.09-1.85-.53-3.69-1.09-5.53-1.66-.69-.22-1.38-.43-2.07-.66s-1.4-.45-2.1-.69q-6.405-2.1-12.7-4.56a255.243,255.243,0,0,1-66.37-37.91c-2.78-2.21-5.6-4.53-8.32-6.78-14.62-12.06-29.74-24.53-48.17-27.25-19.9-2.93-39.02,6.13-57.5,14.89-6.27,2.97-12.75,6.04-19.16,8.61a152.671,152.671,0,0,1-98.1,4.69c-.67-.18-1.34-.38-2-.58v-2.09c.66.2,1.33.4,2,.59a150.753,150.753,0,0,0,97.36-4.47c6.35-2.54,12.81-5.6,19.05-8.56,18.75-8.89,38.14-18.08,58.64-15.06,18.98,2.8,34.32,15.45,49.15,27.69,2.72,2.24,5.53,4.56,8.29,6.76a253.091,253.091,0,0,0,65.94,37.65h.01c4.02,1.56,8.09,3.03,12.18,4.39.59.19,1.18.38,1.77.58.66.21,1.33.42,1.99.63q2.535.81,5.08,1.54,2.49.75,5.01,1.42h.01q6.45,1.755,12.98,3.17c1.97.44,3.94.84,5.93,1.22.43.09.87.17,1.31.25a252.994,252.994,0,0,0,38.86,4.26h.01q6.795.21,13.57.05c1.18-.03,2.35-.07,3.52-.11q7.665-.3,15.31-1.08h.01c54.65-5.59,107.89-29.51,148.05-66.89a1,1,0,0,1,1.36,1.47Z" transform="translate(-253.5 -142)" fill="#00796b"/>
    <path id="Path_365" data-name="Path 365" d="M253.81,232.94a2.31,2.31,0,0,1-.31.72v-2.79a2.819,2.819,0,0,1,.31,2.07Z" transform="translate(-253.5 -142)" fill="#ff6584"/>
    <ellipse id="Ellipse_49" data-name="Ellipse 49" cx="3.272" cy="2.276" rx="3.272" ry="2.276" transform="translate(3.316 104.277) rotate(-83.624)" fill="#e6e6e6"/>
    <ellipse id="Ellipse_50" data-name="Ellipse 50" cx="3.272" cy="2.276" rx="3.272" ry="2.276" transform="translate(6.099 125.485) rotate(-83.624)" fill="#3f3d56"/>
    <ellipse id="Ellipse_51" data-name="Ellipse 51" cx="3.601" cy="5.177" rx="3.601" ry="5.177" transform="translate(494.043 292.811) rotate(-75.779)" fill="#fff"/>
    <ellipse id="Ellipse_52" data-name="Ellipse 52" cx="3.601" cy="5.177" rx="3.601" ry="5.177" transform="translate(460.2 292.594) rotate(-75.779)" fill="#3f3d56"/>
    <ellipse id="Ellipse_53" data-name="Ellipse 53" cx="3.601" cy="5.177" rx="3.601" ry="5.177" transform="translate(500.395 320.89) rotate(-75.779)" fill="#ff6584"/>
    <ellipse id="Ellipse_54" data-name="Ellipse 54" cx="3.272" cy="2.276" rx="3.272" ry="2.276" transform="translate(514.318 333.275) rotate(-83.624)" fill="#e6e6e6"/>
    <ellipse id="Ellipse_55" data-name="Ellipse 55" cx="3.272" cy="2.276" rx="3.272" ry="2.276" transform="translate(517.101 354.483) rotate(-83.624)" fill="#3f3d56"/>
    <ellipse id="Ellipse_56" data-name="Ellipse 56" cx="3.272" cy="2.276" rx="3.272" ry="2.276" transform="translate(482.501 314.067) rotate(-83.624)" fill="#e6e6e6"/>
    <ellipse id="Ellipse_57" data-name="Ellipse 57" cx="3.272" cy="2.276" rx="3.272" ry="2.276" transform="translate(499.533 307.669) rotate(-83.624)" fill="#ff6584"/>
    <ellipse id="Ellipse_58" data-name="Ellipse 58" cx="3.272" cy="2.276" rx="3.272" ry="2.276" transform="translate(478.55 290.383) rotate(-83.624)" fill="#3f3d56"/>
    <ellipse id="Ellipse_59" data-name="Ellipse 59" cx="3.601" cy="5.177" rx="3.601" ry="5.177" transform="translate(39.041 55.812) rotate(-75.779)" fill="#fff"/>
    <ellipse id="Ellipse_60" data-name="Ellipse 60" cx="3.601" cy="5.177" rx="3.601" ry="5.177" transform="translate(5.198 55.595) rotate(-75.779)" fill="#3f3d56"/>
    <ellipse id="Ellipse_61" data-name="Ellipse 61" cx="3.601" cy="5.177" rx="3.601" ry="5.177" transform="translate(45.393 83.892) rotate(-75.779)" fill="#ff6584"/>
    <ellipse id="Ellipse_62" data-name="Ellipse 62" cx="3.272" cy="2.276" rx="3.272" ry="2.276" transform="translate(59.316 96.277) rotate(-83.624)" fill="#e6e6e6"/>
    <ellipse id="Ellipse_63" data-name="Ellipse 63" cx="3.272" cy="2.276" rx="3.272" ry="2.276" transform="translate(62.099 117.485) rotate(-83.624)" fill="#3f3d56"/>
    <ellipse id="Ellipse_64" data-name="Ellipse 64" cx="3.272" cy="2.276" rx="3.272" ry="2.276" transform="translate(27.498 77.069) rotate(-83.624)" fill="#e6e6e6"/>
    <ellipse id="Ellipse_65" data-name="Ellipse 65" cx="3.272" cy="2.276" rx="3.272" ry="2.276" transform="translate(44.53 70.671) rotate(-83.624)" fill="#ff6584"/>
    <ellipse id="Ellipse_66" data-name="Ellipse 66" cx="3.272" cy="2.276" rx="3.272" ry="2.276" transform="translate(23.547 53.384) rotate(-83.624)" fill="#3f3d56"/>
    <circle id="Ellipse_67" data-name="Ellipse 67" cx="4" cy="4" r="4" transform="translate(154.373 190.095)" fill="#fff"/>
    <circle id="Ellipse_68" data-name="Ellipse 68" cx="2" cy="2" r="2" transform="translate(58.373 232.095)" fill="#fff"/>
    <circle id="Ellipse_69" data-name="Ellipse 69" cx="2" cy="2" r="2" transform="translate(455.373 381.095)" fill="#fff"/>
    <circle id="Ellipse_70" data-name="Ellipse 70" cx="2" cy="2" r="2" transform="translate(197.373 289.095)" fill="#fff"/>
    <circle id="Ellipse_71" data-name="Ellipse 71" cx="2" cy="2" r="2" transform="translate(233.373 80.095)" fill="#fff"/>
    <circle id="Ellipse_72" data-name="Ellipse 72" cx="2" cy="2" r="2" transform="translate(560.373 157.095)" fill="#fff"/>
    <circle id="Ellipse_73" data-name="Ellipse 73" cx="2" cy="2" r="2" transform="translate(95.373 53.095)" fill="#fff"/>
    <circle id="Ellipse_74" data-name="Ellipse 74" cx="4" cy="4" r="4" transform="translate(457.373 39.095)" fill="#fff"/>
    <path id="Path_366" data-name="Path 366" d="M893.87,716.6h-2c0-11.54-10.81-22.83-32.14-33.56-20.87-10.5-50.79-19.94-88.91-28.05q-8.46-1.8-17.31-3.48c-30.52-5.8-64.43-10.55-100.75-14.16q-11.265-1.125-22.85-2.09c-2.5-.22-5.02-.42-7.55-.63q-10.545-.825-21.31-1.54c-37.46-2.48-76.79-3.83-117.05-3.97-2.37-.02-4.75-.02-7.13-.02-52.43,0-64.27,4.95-64.97,9.11-1.79,10.52,58.85,31.65,117.49,52.1C594.3,712.93,661.01,736.19,683.73,756c.77.67,1.49,1.34,2.16,2h-2.75c-.73-.66-1.52-1.33-2.36-2-23.99-19.16-91.28-42.62-152.05-63.81-74.94-26.12-120.77-42.72-118.81-54.32.85-5.02,9.23-10.77,66.95-10.77,1.89,0,3.79,0,5.68.01,40.25.11,79.58,1.43,117.08,3.89q11,.705,21.77,1.56c2.67.21,5.33.42,7.98.65q11.88.99,23.45,2.14c37.28,3.7,72.05,8.6,103.23,14.61q7.74,1.5,15.18,3.08C850.32,669.86,893.87,692.43,893.87,716.6Z" transform="translate(-253.5 -142)" fill="#e6e6e6"/>
    <path id="Path_367" data-name="Path 367" d="M862.873,711.779h-2c0-8.54-34.888-17.684-86.825-17.684s-86.824,9.144-86.824,17.684h-2c0-12.321,45.162-19.684,88.824-19.684S862.873,699.458,862.873,711.779Z" transform="translate(-253.5 -142)" fill="#e6e6e6"/>
    <path id="Path_368" data-name="Path 368" d="M827.976,717.595h-2c0-4.823-21.206-10.2-51.637-10.2s-51.637,5.375-51.637,10.2h-2c0-7.923,27.635-12.2,53.637-12.2S827.976,709.672,827.976,717.595Z" transform="translate(-253.5 -142)" fill="#e6e6e6"/>
    <circle id="Ellipse_75" data-name="Ellipse 75" cx="40" cy="40" r="40" transform="translate(320.373 54.095)" fill="#f2f2f2"/>
    <circle id="Ellipse_76" data-name="Ellipse 76" cx="40" cy="40" r="40" transform="translate(314.373 57.095)" fill="#f2f2f2"/>
    <path id="Path_369" data-name="Path 369" d="M651.872,677.04H614.38v-.474a14.594,14.594,0,0,1,14.592-14.593h0l6.848-5.2,12.778,5.2h3.273Z" transform="translate(-253.5 -142)" fill="#f2f2f2"/>
    <path id="Path_370" data-name="Path 370" d="M634.419,656.791l-32.033,19.483-.246-.405a14.594,14.594,0,0,1,4.884-20.051h0l3.151-8,13.617-2.2,2.8-1.7Z" transform="translate(-253.5 -142)" fill="#f2f2f2"/>
    <path id="Path_371" data-name="Path 371" d="M656.443,550.565c-.17,1.2-.42,5.28-.71,11.22-1.41,28.8-3.86,101.31-3.86,101.31l-15.27-4.75s-18.16-54.78-15.16-84.78l-2.16-10.44-3.7-17.84v-.01l-11.27-54.33s-2.47,14.72-2.67,18.17-2.2,4.45-3.2,4.45c-5.01,0-3.47-.89-2.74,4.06.53,3.56-3.81,23.97-6.29,35.13-.96,4.34-1.64,7.28-1.64,7.28l4.24,9.14,35.15,75.8-13.29,7.12-53.02-78.58-5.23-7.75-1.12-8.69-8.82-68.37s-2.75-7.73,0-7.93,4.32.66,3.54-2.27,15.22-51.94,15.22-51.94l83,18s8.18,16.26,5,24,2.61,67.68-.7,70.34-5.43.53-.87,5.1a8.386,8.386,0,0,0,2.43,1.76C656.123,547.045,657.243,544.965,656.443,550.565Z" transform="translate(-253.5 -142)" fill="#f2f2f2"/>
    <circle id="Ellipse_77" data-name="Ellipse 77" cx="23.056" cy="23.056" r="23.056" transform="translate(331.057 75.904)" fill="#a0616a"/>
    <path id="Path_372" data-name="Path 372" d="M625.58,260.816l-9.14,1.75s8.5-13.72,8-20-7.34-8.53-7.34-8.53-3.79.82-7.78,1.28a20.063,20.063,0,0,0-1.85-3.85,6.716,6.716,0,0,1-1.96,4.14,10.935,10.935,0,0,1-4.33-.5c-1.58-.72-1.55-1.97-1.03-3.14a41.624,41.624,0,0,0-14.82,4.07,40.9,40.9,0,0,1,.35-9.2c.22-.06.44-.13.66-.2a20.414,20.414,0,0,0,3.92-1.71,6.751,6.751,0,0,1-3.7-1.74c.84-2.46,2.18-4.59,4.29-5.63a15.815,15.815,0,0,1,13.13-.35s-4.89-3.57-3.09-5.03c.12.12.24.23.37.34.17.14.36.29.54.43,1.11.9,2.77-.37,2.99-1.73a4.585,4.585,0,0,1,.1-.51c.03-.14.07-.28.11-.41a3.4,3.4,0,0,1,.12-.34c3.33-.8,13.4,2.45,17.27,9.61C622.39,219.566,649.44,232.566,625.58,260.816Z" transform="translate(-253.5 -142)" fill="#3f3d56"/>
    <path id="Path_373" data-name="Path 373" d="M617.228,466.376a8.934,8.934,0,0,1,7.321-10.083,8.574,8.574,0,0,1,1.413-.1l24.107-55.982,16.537,12.416-32.2,53.034a8.909,8.909,0,0,1-7.366,8,8.526,8.526,0,0,1-9.78-7.053Q617.243,466.492,617.228,466.376Z" transform="translate(-253.5 -142)" fill="#00796b"/>
    <path id="Path_374" data-name="Path 374" d="M549.7,470.94a8.934,8.934,0,0,0-.006-12.461,8.572,8.572,0,0,0-1.084-.913L561.963,398.1l-20.677.341-5.074,61.835a8.909,8.909,0,0,0,1.264,10.8,8.526,8.526,0,0,0,12.057.033Z" transform="translate(-253.5 -142)" fill="#00796b"/>
    <path id="Path_375" data-name="Path 375" d="M682.943,371.385c-3,4-7-.51-3,5.25,2.75,3.96-13.01,41.08-23.1,63.82-4.56,10.29-7.97,17.64-7.97,17.64l-17.01-9.85-1.99-1.15s15.6-39.26,20.62-53.37c.83-2.34,1.38-3.99,1.51-4.65.94-4.69,1.06-8.71,0-10.2a13.911,13.911,0,0,1-.64-1.71c-2.01-5.89-8.13-25.78-13.86-44.59-1.67-5.52-3.32-10.94-4.82-15.89-3.85-12.71-6.74-22.3-6.74-22.3l23,1s.38.64,1.05,1.8c1.6,2.76,4.88,8.45,8.68,15.29,2.74,4.92,5.76,10.45,8.61,15.89,7.26,13.84,13.51,27.17,11.66,29.02-4,4-8.09,1.73-3.05,6.86S685.943,367.385,682.943,371.385Z" transform="translate(-253.5 -142)" fill="#f2f2f2"/>
    <path id="Path_376" data-name="Path 376" d="M655.44,424.566c-6-5.94-4.89-33.01-4.89-33.01s5.97-90.9-2.11-96.99a112.678,112.678,0,0,0-17.76-10.49c-.36-.16-.55-.25-.55-.25l-5.16-14.55-31.79-1.65-5.55,10.78s-.87.06-2.23.25c-5.08.7-17.02,3.18-15.96,10.91,1.34,9.8-8.12,69.99-11,73s-2.12,14.01,5,21,2,26-3,34a27.385,27.385,0,0,0-3.96,16.34s3.96,21.66,13.96,14.66c3.81-2.67,9.22-3.01,15.73-2.52.063,0,.132.013.2.018l-.2.982c9.04.67,20.21,2.94,32.16,2.81l-.354-1c.119,0,.235.006.354,0,2.02-.02,4.05-.11,6.11-.29,17.82-1.55,25.69,3.35,28-2S661.44,430.506,655.44,424.566Z" transform="translate(-253.5 -142)" fill="#f2f2f2"/>
    <circle id="Ellipse_78" data-name="Ellipse 78" cx="30" cy="30" r="30" transform="translate(324.373 67.095)" fill="#00796b" opacity="0.3"/>
    <path id="Path_377" data-name="Path 377" d="M593.443,284.385s-4.56,15.14-9.87,32.61c-1.67,5.5-3.42,11.23-5.12,16.8-5.55,18.11-10.61,34.43-11.08,35.08-1.06,1.49-.93,5.51,0,10.2.19.94-.24,4.6-1.05,9.85-1.06,6.89-2.77,16.51-4.59,26.33-1.45,7.85-2.97,15.82-4.28,22.61-2.05,10.54-3.58,18.23-3.58,18.23h-19s3.57-79.71,7.57-85.46,0-1.25-3-5.25,2-2,7.04-7.14.96-2.86-3.04-6.86c-1.48-1.48,1.83-10.91,6.59-22.2,2.22-5.24,4.75-10.89,7.25-16.33,5.17-11.23,10.24-21.56,12.25-25.64,0-.01.01-.02.01-.03l.9-1.8Z" transform="translate(-253.5 -142)" fill="#f2f2f2"/>
    <path id="Path_378" data-name="Path 378" d="M634.873,288.1c-20.879,8.11-39.651,9.508-55,0v-18c18.077,10.846,36.417,10.55,55,0Z" transform="translate(-253.5 -142)" fill="#3f3d56"/>
    <path id="Path_379" data-name="Path 379" d="M650.873,403.1c-32.268,8.11-61.279,9.508-85,0v-18c27.937,10.846,56.281,10.55,85,0Z" transform="translate(-253.5 -142)" fill="#3f3d56"/>
    <path id="Path_380" data-name="Path 380" d="M656.443,550.565c-.17,1.2-.42,5.28-.71,11.22a147.582,147.582,0,0,1-36.45,1.34l-3.7-17.84a112.887,112.887,0,0,0,37.72.48C656.123,547.045,657.243,544.965,656.443,550.565Z" transform="translate(-253.5 -142)" fill="#3f3d56"/>
    <path id="Path_381" data-name="Path 381" d="M592.013,569.175a195.434,195.434,0,0,1-31.16,4.34l-5.23-7.75-1.12-8.69a118.573,118.573,0,0,0,34.91-4.32c-.96,4.34-1.64,7.28-1.64,7.28Z" transform="translate(-253.5 -142)" fill="#3f3d56"/>
    <path id="Path_382" data-name="Path 382" d="M594.873,326.1a10,10,0,0,1-20,0c0-5.523,9-17,10-10S594.873,320.572,594.873,326.1Z" transform="translate(-253.5 -142)" fill="#00796b"/>
    <path id="Path_383" data-name="Path 383" d="M585.96,309.14c-.36-.03-.72-.04-1.09-.04a17.026,17.026,0,0,0-16.98,16.11c-.01.29-.02.59-.02.89,0,.41.01.81.05,1.21a16.987,16.987,0,0,0,31.24,7.98,15.949,15.949,0,0,0,1.04-1.85,16.989,16.989,0,0,0-14.24-24.3ZM597.7,335a16.918,16.918,0,0,1-12.83,6.1,15.022,15.022,0,0,1-14.88-13.13,14.426,14.426,0,0,1-.12-1.87,2.255,2.255,0,0,1,.01-.26,15,15,0,0,1,14.99-14.74c.09.24.18.47.28.69,4.27,10.1,13.53,9.34,14.72,14.31a9.831,9.831,0,0,1-.98,7.09A11.515,11.515,0,0,1,597.7,335Z" transform="translate(-253.5 -142)" fill="#00796b"/>
  </g>
</svg>
