<svg xmlns="http://www.w3.org/2000/svg" width="1497.936" height="703.825" viewBox="0 0 1497.936 703.825">
  <g id="Group_41" data-name="Group 41" transform="translate(131.936 -974.008)">
    <g id="undraw_hiring_re_yk5n" transform="translate(673.24 974.009) rotate(7)">
      <path id="Path_136" data-name="Path 136" d="M556.072,656.52H264.848a13.845,13.845,0,0,1-13.829-13.829V247.342a13.845,13.845,0,0,1,13.829-13.829H556.072A13.845,13.845,0,0,1,569.9,247.342V642.691a13.845,13.845,0,0,1-13.829,13.829Z" transform="translate(-251.019 -134.268)" fill="#fff"/>
      <path id="Path_137" data-name="Path 137" d="M397.332,336.4a54.107,54.107,0,0,1-37.342,51.444c-.324.1-.649.206-.978.3-1.406.433-2.832.8-4.283,1.116a53.172,53.172,0,0,1-7.971,1.106q-1.748.118-3.516.118a54,54,0,0,1-17.884-3.029c-.167-.059-.334-.118-.5-.177a54.095,54.095,0,1,1,72.47-50.884Z" transform="translate(-251.019 -134.268)" fill="#fff"/>
      <circle id="Ellipse_25" data-name="Ellipse 25" cx="26.317" cy="26.317" r="26.317" transform="translate(64.611 185.338)" fill="#00796b"/>
      <path id="Path_138" data-name="Path 138" d="M343.482,360.1l.027-.983c-1.83-.051-3.443-.166-4.655-1.051a3.023,3.023,0,0,1-1.171-2.227,1.728,1.728,0,0,1,.567-1.423,2.979,2.979,0,0,1,3.043-.027l.814.373-1.56-11.4-.974.134,1.327,9.7a3.472,3.472,0,0,0-3.284.473,2.69,2.69,0,0,0-.915,2.209,4,4,0,0,0,1.574,2.986C339.832,360,341.856,360.057,343.482,360.1Z" transform="translate(-251.019 -134.268)" fill="#2f2e41"/>
      <rect id="Rectangle_24" data-name="Rectangle 24" width="5.297" height="0.983" transform="translate(78.439 210.063)" fill="#2f2e41"/>
      <rect id="Rectangle_25" data-name="Rectangle 25" width="5.297" height="0.983" transform="translate(95.158 210.063)" fill="#2f2e41"/>
      <path id="Path_139" data-name="Path 139" d="M349.423,382.714a4.815,4.815,0,0,0,.108-.983,4.679,4.679,0,0,0-4.671-4.671h-6.884a4.675,4.675,0,0,0-4.671,4.671,4.545,4.545,0,0,0,.108.988,26.425,26.425,0,0,0-7.282,3.6c-.433.3-.861.624-1.269.964.162.059.329.118.5.177a53.993,53.993,0,0,0,17.884,3.029q1.77,0,3.516-.118a53.169,53.169,0,0,0,7.971-1.106c1.451-.315,2.877-.684,4.283-1.116A26.65,26.65,0,0,0,349.423,382.714Z" transform="translate(-251.019 -134.268)" fill="#2f2e41"/>
      <path id="Path_140" data-name="Path 140" d="M348.538,389.751a3.618,3.618,0,0,0-1.78.625,53.169,53.169,0,0,0,7.971-1.106Z" transform="translate(-251.019 -134.268)" fill="#2f2e41"/>
      <path id="Path_141" data-name="Path 141" d="M365.814,339.672,320.1,322.947a1.967,1.967,0,0,1-1.171-2.523l.155-.731c3.57-9.76,15.4-15.9,25.165-12.332l14.068,5.147c9.76,3.57,14,15.127,10.431,24.887l-.407,1.105A1.967,1.967,0,0,1,365.814,339.672Z" transform="translate(-251.019 -134.268)" fill="#2f2e41"/>
      <path id="Path_142" data-name="Path 142" d="M368.276,340.6c-63.721,2.351-69.289-5.655-49.874-18.245l4.119-7.579,47.206,17.21Z" transform="translate(-251.019 -134.268)" fill="#2f2e41"/>
      <ellipse id="Ellipse_26" data-name="Ellipse 26" cx="2.213" cy="4.18" rx="2.213" ry="4.18" transform="translate(96.121 176.752) rotate(-73.27)" fill="#2f2e41"/>
      <path id="Path_143" data-name="Path 143" d="M343.242,391.968a55.431,55.431,0,0,1-18.372-3.112l-.513-.183a55.565,55.565,0,1,1,36.089.577c-.35.111-.678.216-1.013.315-1.4.43-2.878.816-4.392,1.144a54.756,54.756,0,0,1-8.193,1.137C345.664,391.927,344.448,391.968,343.242,391.968Zm0-108.179a52.622,52.622,0,0,0-17.88,102.11l.487.174a52.474,52.474,0,0,0,17.393,2.945c1.14,0,2.289-.039,3.416-.115a51.874,51.874,0,0,0,7.758-1.076c1.432-.31,2.832-.675,4.161-1.084.329-.1.641-.2.954-.3a52.622,52.622,0,0,0-16.29-102.656Z" transform="translate(-251.019 -134.268)" fill="#ccc"/>
      <path id="Path_144" data-name="Path 144" d="M269.607,502.682" transform="translate(-251.019 -134.268)" fill="#f2f2f2"/>
      <path id="Path_145" data-name="Path 145" d="M556.072,656.52H264.848a13.845,13.845,0,0,1-13.829-13.829V247.342a13.845,13.845,0,0,1,13.829-13.829H556.072A13.845,13.845,0,0,1,569.9,247.342V642.691a13.845,13.845,0,0,1-13.829,13.829ZM264.848,235.14a12.216,12.216,0,0,0-12.2,12.2V642.691a12.216,12.216,0,0,0,12.2,12.2H556.072a12.216,12.216,0,0,0,12.2-12.2V247.342a12.216,12.216,0,0,0-12.2-12.2Z" transform="translate(-251.019 -134.268)" fill="#ccc"/>
      <path id="Path_146" data-name="Path 146" d="M499.7,336.193H417.288a6.519,6.519,0,0,1,0-13.039H499.7a6.519,6.519,0,1,1,0,13.039Z" transform="translate(-251.019 -134.268)" fill="#e6e6e6"/>
      <path id="Path_147" data-name="Path 147" d="M526.587,358.2h-109.3a6.519,6.519,0,1,1,0-13.039h109.3a6.519,6.519,0,0,1,0,13.039Z" transform="translate(-251.019 -134.268)" fill="#e6e6e6"/>
      <path id="Path_148" data-name="Path 148" d="M499.575,442.585H294.333a6.519,6.519,0,0,1,0-13.039H499.575a6.519,6.519,0,1,1,0,13.039Z" transform="translate(-251.019 -134.268)" fill="#e6e6e6"/>
      <path id="Path_149" data-name="Path 149" d="M526.467,464.587H294.333a6.519,6.519,0,0,1,0-13.039H526.467a6.519,6.519,0,0,1,0,13.039Z" transform="translate(-251.019 -134.268)" fill="#e6e6e6"/>
      <path id="Path_150" data-name="Path 150" d="M499.575,515.158H294.333a6.519,6.519,0,1,1,0-13.039H499.575a6.519,6.519,0,0,1,0,13.039Z" transform="translate(-251.019 -134.268)" fill="#e6e6e6"/>
      <path id="Path_151" data-name="Path 151" d="M526.467,537.16H294.333a6.519,6.519,0,1,1,0-13.039H526.467a6.519,6.519,0,0,1,0,13.039Z" transform="translate(-251.019 -134.268)" fill="#e6e6e6"/>
      <path id="Path_152" data-name="Path 152" d="M499.575,587.731H294.333a6.519,6.519,0,1,1,0-13.039H499.575a6.519,6.519,0,0,1,0,13.039Z" transform="translate(-251.019 -134.268)" fill="#e6e6e6"/>
      <path id="Path_153" data-name="Path 153" d="M526.467,609.733H294.333a6.519,6.519,0,1,1,0-13.039H526.467a6.519,6.519,0,0,1,0,13.039Z" transform="translate(-251.019 -134.268)" fill="#e6e6e6"/>
      <path id="Path_154" data-name="Path 154" d="M935.152,557.276H643.927A13.845,13.845,0,0,1,630.1,543.447V148.1a13.845,13.845,0,0,1,13.829-13.829H935.152A13.845,13.845,0,0,1,948.981,148.1v395.35a13.845,13.845,0,0,1-13.829,13.829Z" transform="translate(-251.019 -134.268)" fill="#fff"/>
      <path id="Path_155" data-name="Path 155" d="M935.152,557.276H643.927A13.845,13.845,0,0,1,630.1,543.447V148.1a13.845,13.845,0,0,1,13.829-13.829H935.152A13.845,13.845,0,0,1,948.981,148.1v395.35a13.845,13.845,0,0,1-13.829,13.829ZM643.927,135.9a12.216,12.216,0,0,0-12.2,12.2V543.447a12.216,12.216,0,0,0,12.2,12.2H935.152a12.216,12.216,0,0,0,12.2-12.2V148.1a12.216,12.216,0,0,0-12.2-12.2Z" transform="translate(-251.019 -134.268)" fill="#ccc"/>
      <path id="Path_156" data-name="Path 156" d="M776.548,236.62a54.09,54.09,0,1,1-54.09-54.09A54.09,54.09,0,0,1,776.548,236.62Z" transform="translate(-251.019 -134.268)" fill="#fff"/>
      <path id="Path_157" data-name="Path 157" d="M747.458,245.876c-.591,34.593-52.047,34.588-52.633,0C695.415,211.282,746.872,211.288,747.458,245.876Z" transform="translate(-251.019 -134.268)" fill="#00796b"/>
      <path id="Path_158" data-name="Path 158" d="M720.1,256.613l-.027-.983c6.778.905,8.238-7.5,1.4-4.355l1.56-11.4.974.133-1.327,9.7C729.876,248.633,727.214,257.6,720.1,256.613Z" transform="translate(-251.019 -134.268)" fill="#2f2e41"/>
      <rect id="Rectangle_26" data-name="Rectangle 26" width="5.297" height="0.983" transform="translate(477.806 106.573)" fill="#2f2e41"/>
      <rect id="Rectangle_27" data-name="Rectangle 27" width="5.297" height="0.983" transform="translate(461.087 106.573)" fill="#2f2e41"/>
      <path id="Path_159" data-name="Path 159" d="M729.672,282.67c1.033-6.968-7.125-5.591-11.442-5.66a4.68,4.68,0,0,0-4.563,5.655,25.588,25.588,0,0,0-9.092,5.016,54.324,54.324,0,0,0,34.632.384A25.457,25.457,0,0,0,729.672,282.67Z" transform="translate(-251.019 -134.268)" fill="#2f2e41"/>
      <path id="Path_160" data-name="Path 160" d="M708.769,233.429c4.877-2.819,10.792-.656,15.83.526,9.558,2.938,22.962-.741,24.124-12.127,1.21-10.589-13.276-16.491-17.906-5.952l1.348-.176c-15.016-22.316-41.135-21.469-40.963,9.211-.056.948,1.42.945,1.475,0-.553-18.079,11.412-30.437,28.326-18.819a49.833,49.833,0,0,1,9.889,10.354c1.761,1.974,2.144-6.527,10.575-4.3,9.278,3.594,6.251,16.88-2.042,19.8-10.247,5.235-21.344-4.915-31.4.214a.738.738,0,0,0,.745,1.274Z" transform="translate(-251.019 -134.268)" fill="#2f2e41"/>
      <path id="Path_161" data-name="Path 161" d="M722.459,292.185a55.518,55.518,0,1,1,17.2-2.718,55.518,55.518,0,0,1-17.2,2.718Zm0-108.179a52.622,52.622,0,1,0,52.614,52.617A52.624,52.624,0,0,0,722.459,184.006Z" transform="translate(-251.019 -134.268)" fill="#ccc"/>
      <path id="Path_162" data-name="Path 162" d="M878.774,236.949H796.367a6.519,6.519,0,0,1,0-13.039h82.406a6.519,6.519,0,1,1,0,13.039Z" transform="translate(-251.019 -134.268)" fill="#e6e6e6"/>
      <path id="Path_163" data-name="Path 163" d="M905.667,258.951h-109.3a6.519,6.519,0,0,1,0-13.039h109.3a6.519,6.519,0,0,1,0,13.039Z" transform="translate(-251.019 -134.268)" fill="#e6e6e6"/>
      <path id="Path_164" data-name="Path 164" d="M878.655,343.34H673.414a6.519,6.519,0,0,1,0-13.039H878.655a6.519,6.519,0,0,1,0,13.039Z" transform="translate(-251.019 -134.268)" fill="#e6e6e6"/>
      <path id="Path_165" data-name="Path 165" d="M905.547,365.343H673.413a6.519,6.519,0,0,1,0-13.039H905.547a6.519,6.519,0,0,1,0,13.039Z" transform="translate(-251.019 -134.268)" fill="#e6e6e6"/>
      <path id="Path_166" data-name="Path 166" d="M878.655,415.913H673.414a6.519,6.519,0,0,1,0-13.039H878.655a6.519,6.519,0,0,1,0,13.039Z" transform="translate(-251.019 -134.268)" fill="#e6e6e6"/>
      <path id="Path_167" data-name="Path 167" d="M905.547,437.916H673.413a6.519,6.519,0,0,1,0-13.039H905.547a6.519,6.519,0,0,1,0,13.039Z" transform="translate(-251.019 -134.268)" fill="#e6e6e6"/>
      <path id="Path_168" data-name="Path 168" d="M878.655,488.487H673.414a6.519,6.519,0,0,1,0-13.039H878.655a6.519,6.519,0,0,1,0,13.039Z" transform="translate(-251.019 -134.268)" fill="#e6e6e6"/>
      <path id="Path_169" data-name="Path 169" d="M905.547,510.489H673.413a6.519,6.519,0,0,1,0-13.039H905.547a6.519,6.519,0,0,1,0,13.039Z" transform="translate(-251.019 -134.268)" fill="#e6e6e6"/>
      <path id="Path_170" data-name="Path 170" d="M759.441,727.293H468.217a13.845,13.845,0,0,1-13.829-13.829V318.114a13.845,13.845,0,0,1,13.829-13.829H759.441a13.845,13.845,0,0,1,13.829,13.829V713.463a13.845,13.845,0,0,1-13.829,13.83Z" transform="translate(-251.019 -134.268)" fill="#fff"/>
      <path id="Path_171" data-name="Path 171" d="M492.506,406.064a53.926,53.926,0,0,0,15.9,38.31c.423.418.856.836,1.293,1.244a54.016,54.016,0,0,0,8.586,6.545c.59.364,1.18.713,1.785,1.052a53.78,53.78,0,0,0,9.775,4.293c.585.192,1.18.374,1.775.541a54.313,54.313,0,0,0,32.857-.924c.206-.074.413-.148.615-.221a54.094,54.094,0,1,0-72.588-50.839Z" transform="translate(-251.019 -134.268)" fill="#fff"/>
      <path id="Path_172" data-name="Path 172" d="M535.173,432.576a16.761,16.761,0,0,1-4.329,11.347c-2.781,3.052-6.922,5.076-11.1,4.239-3.847-.771-6.974-4.134-6.584-8.2a6.076,6.076,0,0,1,7.507-5.456c3.655.948,5.111,6.216,2.065,8.688-.731.593-1.781-.444-1.043-1.043a3.684,3.684,0,0,0-1.039-6.107,4.63,4.63,0,0,0-6.03,4.094c-.241,3.429,2.386,6.012,5.608,6.62,3.485.658,6.941-1.126,9.3-3.588a15.221,15.221,0,0,0,4.167-10.593.738.738,0,0,1,1.475,0Z" transform="translate(-251.019 -134.268)" fill="#2f2e41"/>
      <circle id="Ellipse_27" data-name="Ellipse 27" cx="26.317" cy="26.317" r="26.317" transform="translate(272.242 255.051)" fill="#00796b"/>
      <path id="Path_173" data-name="Path 173" d="M548.231,426.866l-.027-.983c1.83-.051,3.443-.166,4.655-1.051a3.023,3.023,0,0,0,1.171-2.227,1.728,1.728,0,0,0-.567-1.423,2.979,2.979,0,0,0-3.043-.027l-.814.373,1.56-11.4.974.134-1.327,9.7a3.471,3.471,0,0,1,3.284.473,2.69,2.69,0,0,1,.915,2.209,4,4,0,0,1-1.574,2.986C551.881,426.763,549.857,426.82,548.231,426.866Z" transform="translate(-251.019 -134.268)" fill="#2f2e41"/>
      <rect id="Rectangle_28" data-name="Rectangle 28" width="5.297" height="0.983" transform="translate(305.94 276.826)" fill="#2f2e41"/>
      <rect id="Rectangle_29" data-name="Rectangle 29" width="5.297" height="0.983" transform="translate(289.222 276.826)" fill="#2f2e41"/>
      <path id="Path_174" data-name="Path 174" d="M531.622,458.049a54.313,54.313,0,0,0,32.857-.924c.206-.074.413-.148.615-.221a26.2,26.2,0,0,0-8.335-4.308,4.194,4.194,0,0,0-.01-2.311,4.651,4.651,0,0,0-4.5-3.265h-6.412a4.635,4.635,0,0,0-4.489,3.26,4.211,4.211,0,0,0-.01,2.316,26.22,26.22,0,0,0-7.435,3.644q-.686.48-1.327,1C532.252,457.5,531.932,457.774,531.622,458.049Z" transform="translate(-251.019 -134.268)" fill="#2f2e41"/>
      <path id="Path_175" data-name="Path 175" d="M570.193,412.845c0,4.435,2.183,8.113,5.021,8.753a4.061,4.061,0,0,0,.88.1c3.25,0,5.9-3.968,5.9-8.851a10.869,10.869,0,0,0-2.272-6.973,5.692,5.692,0,0,0-1.736-1.411,4.114,4.114,0,0,0-1.893-.467,4.314,4.314,0,0,0-2.513.846C571.58,406.256,570.193,409.309,570.193,412.845Z" transform="translate(-251.019 -134.268)" fill="#3f3d56"/>
      <path id="Path_176" data-name="Path 176" d="M517.579,412.845c0,3.816,1.613,7.071,3.875,8.315a4.2,4.2,0,0,0,2.026.536,3.806,3.806,0,0,0,.471-.029c3.029-.359,5.429-4.175,5.429-8.822,0-3.722-1.539-6.914-3.713-8.217a4.217,4.217,0,0,0-2.188-.634,4.114,4.114,0,0,0-1.893.467,5.725,5.725,0,0,0-1.741,1.416,10.89,10.89,0,0,0-2.267,6.968Z" transform="translate(-251.019 -134.268)" fill="#3f3d56"/>
      <path id="Path_177" data-name="Path 177" d="M521.821,420.311a.738.738,0,0,0,.7-.974,28.765,28.765,0,1,1,55.411-3.233.738.738,0,1,0,1.443.3,30.242,30.242,0,1,0-58.252,3.4.738.738,0,0,0,.7.5Z" transform="translate(-251.019 -134.268)" fill="#3f3d56"/>
      <path id="Path_178" data-name="Path 178" d="M562.8,398.586a3.688,3.688,0,0,1-.57,4.566c-1.429,1.6-3.707,1.7-5.685,1.4-2.22-.332-4.574-1.372-6.822-.672-1.915.6-3.282,2.335-5.272,2.771-1.765.387-3.875-.125-4.494-2.006-.3-.9,1.127-1.291,1.422-.392.4,1.217,2.128,1.193,3.118.856,1.587-.54,2.81-1.854,4.369-2.482a9.56,9.56,0,0,1,5.706.016c1.764.4,3.8.986,5.553.244,1.3-.549,2.336-2.279,1.4-3.556-.562-.767.718-1.5,1.274-.745Z" transform="translate(-251.019 -134.268)" fill="#2f2e41"/>
      <path id="Path_179" data-name="Path 179" d="M546.595,461.629a55.461,55.461,0,0,1-15.382-2.163c-.588-.165-1.2-.353-1.825-.556a55.417,55.417,0,0,1-10.04-4.409c-.6-.336-1.2-.69-1.836-1.082a55.615,55.615,0,0,1-8.819-6.723c-.447-.417-.889-.845-1.322-1.272A55.56,55.56,0,1,1,565.6,458.29c-.2.074-.413.149-.623.224a55.438,55.438,0,0,1-18.38,3.115Zm0-108.179a52.617,52.617,0,0,0-37.146,89.88c.408.4.831.811,1.258,1.21a52.667,52.667,0,0,0,8.352,6.367c.6.371,1.169.705,1.734,1.022a52.446,52.446,0,0,0,9.509,4.176c.584.191,1.161.367,1.718.524a52.837,52.837,0,0,0,31.971-.9l.6-.215A52.621,52.621,0,0,0,546.6,353.45Z" transform="translate(-251.019 -134.268)" fill="#ccc"/>
      <path id="Path_180" data-name="Path 180" d="M759.441,727.293H468.217a13.845,13.845,0,0,1-13.829-13.829V318.114a13.845,13.845,0,0,1,13.829-13.829H759.441a13.845,13.845,0,0,1,13.829,13.829V713.463a13.845,13.845,0,0,1-13.829,13.83ZM468.217,305.912a12.216,12.216,0,0,0-12.2,12.2V713.463a12.216,12.216,0,0,0,12.2,12.2H759.441a12.216,12.216,0,0,0,12.2-12.2V318.114a12.216,12.216,0,0,0-12.2-12.2Z" transform="translate(-251.019 -134.268)" fill="#3f3d56"/>
      <path id="Path_181" data-name="Path 181" d="M703.064,406.965H620.657a6.519,6.519,0,0,1,0-13.039h82.406a6.519,6.519,0,0,1,0,13.039Z" transform="translate(-251.019 -134.268)" fill="#00796b"/>
      <path id="Path_182" data-name="Path 182" d="M729.956,428.968h-109.3a6.519,6.519,0,0,1,0-13.039h109.3a6.519,6.519,0,0,1,0,13.039Z" transform="translate(-251.019 -134.268)" fill="#00796b"/>
      <path id="Path_183" data-name="Path 183" d="M702.944,513.357H497.7a6.519,6.519,0,1,1,0-13.039H702.944a6.519,6.519,0,0,1,0,13.039Z" transform="translate(-251.019 -134.268)" fill="#ccc"/>
      <path id="Path_184" data-name="Path 184" d="M729.836,535.36H497.7a6.519,6.519,0,1,1,0-13.039H729.836a6.519,6.519,0,0,1,0,13.039Z" transform="translate(-251.019 -134.268)" fill="#ccc"/>
      <path id="Path_185" data-name="Path 185" d="M702.944,585.93H497.7a6.519,6.519,0,1,1,0-13.039H702.944a6.519,6.519,0,0,1,0,13.039Z" transform="translate(-251.019 -134.268)" fill="#ccc"/>
      <path id="Path_186" data-name="Path 186" d="M729.836,607.933H497.7a6.519,6.519,0,0,1,0-13.039H729.836a6.519,6.519,0,1,1,0,13.039Z" transform="translate(-251.019 -134.268)" fill="#ccc"/>
      <path id="Path_187" data-name="Path 187" d="M702.944,658.5H497.7a6.519,6.519,0,0,1,0-13.039H702.944a6.519,6.519,0,1,1,0,13.039Z" transform="translate(-251.019 -134.268)" fill="#ccc"/>
      <path id="Path_188" data-name="Path 188" d="M729.836,680.506H497.7a6.519,6.519,0,0,1,0-13.039H729.836a6.519,6.519,0,1,1,0,13.039Z" transform="translate(-251.019 -134.268)" fill="#ccc"/>
      <path id="Path_189" data-name="Path 189" d="M756.062,637.268a64.232,64.232,0,1,0,0,128.463h0a64.232,64.232,0,1,0,0-128.463Z" transform="translate(-251.019 -134.268)" fill="#00796b"/>
      <path id="f276b720-7c73-4755-84a7-b208d54eb1fc" d="M749.968,728.176a7.8,7.8,0,0,1-4.69-1.558l-.084-.063-17.664-13.512a7.85,7.85,0,1,1,9.552-12.459l11.441,8.773,27.036-35.271a7.846,7.846,0,0,1,11-1.453h0l0,0-.168.233.172-.233a7.856,7.856,0,0,1,1.451,11l-31.8,41.468a7.85,7.85,0,0,1-6.244,3.061Z" transform="translate(-251.019 -134.268)" fill="#fff"/>
    </g>
    <g id="undraw_resume_re_hkth" transform="translate(-131.939 974.005)">
      <path id="Path_208" data-name="Path 208" d="M578.475,103.958l-23.068,12.587L271.2,271.614,248.13,284.2a48.179,48.179,0,0,0-19.2,65.3L440.578,737.391a48.179,48.179,0,0,0,65.3,19.2l.06-.033L836.159,576.375l.06-.033a48.179,48.179,0,0,0,19.2-65.3L643.771,123.153a48.179,48.179,0,0,0-65.3-19.195Z" transform="translate(-223.063 -98.086)" fill="#f2f2f2"/>
      <path id="Path_209" data-name="Path 209" d="M585.111,116.119l-27.323,14.908-275.7,150.428-27.322,14.908a34.309,34.309,0,0,0-13.67,46.5L452.739,730.755a34.309,34.309,0,0,0,46.5,13.669l.06-.032L829.523,564.214l.06-.033a34.309,34.309,0,0,0,13.669-46.5L631.61,129.789a34.309,34.309,0,0,0-46.5-13.67Z" transform="translate(-223.063 -98.086)" fill="#fff"/>
      <path id="Path_210" data-name="Path 210" d="M589.667,236.521l-123.162,67.2a8.014,8.014,0,1,1-7.677-14.07l123.162-67.2a8.014,8.014,0,0,1,7.677,14.07Z" transform="translate(-223.063 -98.086)" fill="#f2f2f2"/>
      <path id="Path_211" data-name="Path 211" d="M631.641,244.431,479.46,327.464a8.014,8.014,0,1,1-7.677-14.07L623.964,230.36a8.014,8.014,0,0,1,7.677,14.07Z" transform="translate(-223.063 -98.086)" fill="#f2f2f2"/>
      <path id="Path_212" data-name="Path 212" d="M415.872,275.748,302.324,337.7a3.841,3.841,0,0,0-1.532,5.21l48.352,88.618a3.841,3.841,0,0,0,5.21,1.532L467.9,371.108a3.841,3.841,0,0,0,1.532-5.21L421.082,277.28a3.841,3.841,0,0,0-5.21-1.532Z" transform="translate(-223.063 -98.086)" fill="#f2f2f2"/>
      <path id="Path_213" data-name="Path 213" d="M650.776,348.963,483.723,440.111a8.014,8.014,0,0,1-7.677-14.07L643.1,334.893a8.014,8.014,0,0,1,7.677,14.07Z" transform="translate(-223.063 -98.086)" fill="#f2f2f2"/>
      <path id="Path_214" data-name="Path 214" d="M692.751,356.872,496.678,463.854A8.014,8.014,0,1,1,489,449.784L685.074,342.8a8.014,8.014,0,0,1,7.677,14.07Z" transform="translate(-223.063 -98.086)" fill="#f2f2f2"/>
      <circle id="Ellipse_28" data-name="Ellipse 28" cx="34" cy="34" r="34" transform="translate(163.039 348.672)" fill="#f2f2f2"/>
      <path id="Path_215" data-name="Path 215" d="M928.812,263.788H552.494a48.179,48.179,0,0,0-48.125,48.125V753.789a48.179,48.179,0,0,0,48.125,48.125H928.812a48.179,48.179,0,0,0,48.125-48.125V311.913a48.179,48.179,0,0,0-48.125-48.125Z" transform="translate(-223.063 -98.086)" fill="#e6e6e6"/>
      <path id="Path_216" data-name="Path 216" d="M928.813,277.642H552.494a34.31,34.31,0,0,0-34.271,34.271V753.789a34.309,34.309,0,0,0,34.271,34.271H928.813a34.309,34.309,0,0,0,34.27-34.271V311.913a34.31,34.31,0,0,0-34.271-34.271Z" transform="translate(-223.063 -100.449)" fill="#fff"/>
      <path id="Path_217" data-name="Path 217" d="M875.143,385.517h-140.3a8.014,8.014,0,0,1,0-16.028h140.3a8.014,8.014,0,0,1,0,16.028Z" transform="translate(-223.063 -98.086)" fill="#00796b"/>
      <path id="Path_218" data-name="Path 218" d="M908.2,412.565H734.841a8.014,8.014,0,0,1,0-16.028H908.2a8.014,8.014,0,1,1,0,16.028Z" transform="translate(-223.063 -98.086)" fill="#00796b"/>
      <path id="Path_220" data-name="Path 220" d="M609.924,398.7a34.087,34.087,0,0,1-8.8,23.076c-5.656,6.207-14.076,10.324-22.573,8.62-7.824-1.568-14.182-8.407-13.389-16.68a12.356,12.356,0,0,1,15.267-11.1c7.433,1.929,10.394,12.641,4.2,17.669-1.486,1.207-3.621-.9-2.121-2.121,4.094-3.324,2.83-10.6-2.112-12.419-5.754-2.123-11.85,2.443-12.263,8.326-.491,6.974,4.852,12.227,11.4,13.463,7.088,1.338,14.115-2.29,18.918-7.3a30.955,30.955,0,0,0,8.474-21.542,1.5,1.5,0,0,1,3,0Z" transform="translate(-223.063 -98.086)" fill="#2f2e41"/>
      <path id="Path_222" data-name="Path 222" d="M609.572,445.341a53.008,53.008,0,0,1,12.89-5.93,8.567,8.567,0,0,1,.02-4.71,9.426,9.426,0,0,1,9.13-6.63h13.04a9.46,9.46,0,0,1,9.15,6.64,8.532,8.532,0,0,1,.019,4.7,53.167,53.167,0,0,1,12.89,5.93Z" transform="translate(-223.063 -98.086)" fill="#2f2e41"/>
      <path id="Path_227" data-name="Path 227" d="M874.932,513.492H684.63a8.014,8.014,0,0,1,0-16.028h190.3a8.014,8.014,0,1,1,0,16.028Z" transform="translate(-223.063 -98.086)" fill="#e6e6e6"/>
      <path id="Path_228" data-name="Path 228" d="M907.99,540.539H684.63a8.014,8.014,0,0,1,0-16.028H907.99a8.014,8.014,0,0,1,0,16.028Z" transform="translate(-223.063 -98.086)" fill="#e6e6e6"/>
      <path id="Path_229" data-name="Path 229" d="M874.932,610.705H684.63a8.014,8.014,0,0,1,0-16.028h190.3a8.014,8.014,0,0,1,0,16.028Z" transform="translate(-223.063 -98.086)" fill="#e6e6e6"/>
      <path id="Path_230" data-name="Path 230" d="M907.99,637.753H684.63a8.014,8.014,0,0,1,0-16.028H907.99a8.014,8.014,0,0,1,0,16.028Z" transform="translate(-223.063 -98.086)" fill="#e6e6e6"/>
      <circle id="Ellipse_30" data-name="Ellipse 30" cx="34" cy="34" r="34" transform="translate(352.25 386.614)" fill="#e6e6e6"/>
      <circle id="Ellipse_31" data-name="Ellipse 31" cx="34" cy="34" r="34" transform="translate(352.25 484.615)" fill="#e6e6e6"/>
      <path id="Path_231" data-name="Path 231" d="M874.932,708.705H684.63a8.014,8.014,0,0,1,0-16.028h190.3a8.014,8.014,0,0,1,0,16.028Z" transform="translate(-223.063 -98.086)" fill="#e6e6e6"/>
      <path id="Path_232" data-name="Path 232" d="M907.99,735.753H684.63a8.014,8.014,0,0,1,0-16.028H907.99a8.014,8.014,0,0,1,0,16.028Z" transform="translate(-223.063 -98.086)" fill="#e6e6e6"/>
      <circle id="Ellipse_32" data-name="Ellipse 32" cx="34" cy="34" r="34" transform="translate(352.25 582.615)" fill="#e6e6e6"/>
    </g>
  </g>
</svg>
