<svg xmlns="http://www.w3.org/2000/svg" width="787" height="497.572" viewBox="0 0 787 497.572">
  <g id="Group_45" data-name="Group 45" transform="translate(-534 -2060)">
    <path id="Path_362" data-name="Path 362" d="M556.072,656.52H264.848a13.845,13.845,0,0,1-13.829-13.829V247.342a13.845,13.845,0,0,1,13.829-13.829H556.072A13.845,13.845,0,0,1,569.9,247.342V642.691a13.845,13.845,0,0,1-13.829,13.829Z" transform="translate(558.542 1947.831) rotate(-9)" fill="#fff" stroke="#707070" stroke-width="1"/>
    <text id="_2_" data-name="2#" transform="translate(534 2060)" fill="#707070" font-size="100" font-family="InkFree, Ink Free"><tspan x="-64.75" y="91">2#</tspan></text>
    <text id="Automate_every_task_and_operation_and_optimize_workflows_10x_through_the_app_thereby_making_100_efficient_the_process_of_creating_and_sharing_transactional_documents" data-name="Automate every task and operation and optimize workflows 10x through the app, thereby making 100% efficient the process of creating and sharing transactional documents" transform="translate(883.034 2213.354) rotate(-9)" fill="#707070" font-size="22" font-family="Tahoma"><tspan x="9.995" y="22">Automate every task and </tspan><tspan x="20.082" y="59">operation and optimize </tspan><tspan x="1.391" y="96">workflows 10x through the </tspan><tspan x="31.227" y="133">app, thereby making </tspan><tspan x="1.627" y="170">100% efficient the process </tspan><tspan x="19.207" y="207">of creating and sharing </tspan><tspan x="13.153" y="244">transactional documents</tspan></text>
  </g>
</svg>
