<svg xmlns="http://www.w3.org/2000/svg" width="787" height="502.033" viewBox="0 0 787 502.033">
  <g id="Group_44" data-name="Group 44" transform="translate(56 -2557)">
    <path id="Path_361" data-name="Path 361" d="M556.072,656.52H264.848a13.845,13.845,0,0,1-13.829-13.829V247.342a13.845,13.845,0,0,1,13.829-13.829H556.072A13.845,13.845,0,0,1,569.9,247.342V642.691a13.845,13.845,0,0,1-13.829,13.829Z" transform="matrix(0.985, 0.174, -0.174, 0.985, 111.552, 2312.946)" fill="#fff" stroke="#707070" stroke-width="1"/>
    <text id="_3_" data-name="3#" transform="translate(-56 2557)" fill="#707070" font-size="100" font-family="InkFree, Ink Free"><tspan x="-65.15" y="91">3#</tspan></text>
    <text id="Provide_1000_more_outstanding_templates_and_business_resources_like_e-stamps_for_transactional_documents_more_than_any_other_existing_solution" data-name="Provide 1000 more outstanding templates and business resources like e-stamps for transactional documents, more than any other existing solution" transform="matrix(0.985, 0.174, -0.174, 0.985, 322.869, 2702.171)" fill="#707070" font-size="22" font-family="Tahoma"><tspan x="39.778" y="22">Provide 1000 more </tspan><tspan x="2.094" y="59">outstanding templates and </tspan><tspan x="7.218" y="96">business resources like e-</tspan><tspan x="14.7" y="133">stamps for transactional </tspan><tspan x="0.773" y="170">documents, more than any </tspan><tspan x="24.191" y="207">other existing solution</tspan></text>
  </g>
</svg>
