<svg xmlns="http://www.w3.org/2000/svg" width="571.943" height="689.038" viewBox="0 0 571.943 689.038">
  <g id="undraw_certificate_re_yadi" transform="translate(0.003 0)">
    <path id="Path_1" data-name="Path 1" d="M310.019,435.422a27.981,27.981,0,0,0,42.375,6.734l86.256,49.472-3.214-51.572-81.418-39.072a28.133,28.133,0,0,0-44,34.439Z" transform="translate(-305.93 -105.865)" fill="#ffb8b8"/>
    <path id="Path_2" data-name="Path 2" d="M559.741,633.6c-25.586,35.812-24.671,95.726-17.532,161.3H663.183l5.26-12.273,7.013,12.273H789.417s-8.766-166.559-24.545-171.819S559.741,633.6,559.741,633.6Z" transform="translate(-305.93 -105.865)" fill="#2f2e41"/>
    <circle id="Ellipse_7" data-name="Ellipse 7" cx="61.364" cy="61.364" r="61.364" transform="translate(295.888 30.855)" fill="#ffb8b8"/>
    <path id="Path_3" data-name="Path 3" d="M707.534,275.368l12,23,83,37L780.717,546.5l-9.183,21.864,4.961,18.987-11.961,14.013c12.007,10.864,13.532,22.237,7,34l-38.221,8.755S520.792,663.021,538.7,630.1c19.57-35.974,24.553-142.215-18.649-198.988-36.677-48.2-8.519-110.742-8.519-110.742l87-26,32-19Z" transform="translate(-305.93 -105.865)" fill="#3f3d56"/>
    <path id="Path_4" data-name="Path 4" d="M690.426,108.195a3.384,3.384,0,0,1,3.257-1.933c-28.093-1.68-57.685,1.594-81.188,17.075-5.694,3.751-11.062,8.224-17.258,10.945a1.859,1.859,0,0,0-.38,3.163l.68.534a1.866,1.866,0,0,1-.607,3.253h0a1.866,1.866,0,0,0-.469,3.352l5.215,3.371a1.858,1.858,0,0,1,.017,3.126,9.267,9.267,0,0,1-1.387.7,1.862,1.862,0,0,0-.59,3.128,18.537,18.537,0,0,1,5.046,7.377c1.738,4.52,2.05,9.442,2.344,14.276,1.8-6.974,9.408-11.08,16.6-11.5s14.2,1.955,21.2,3.66a117.272,117.272,0,0,0,46.548,1.791c-5.256,10.549-.822,23.131,3.64,34.04l14.443-6.191c19.836-11.2,6.019,36.168-1.4,42.67,15.141,5.249,54.773-53.014,42.023-75.114-6.632-11.5-1.924-26.324-14.963-37.227-6.39-6.727-19.149-3.737-25.664-9.328-2.564-2.2,1.344-8.088-2.18-9.371C704.184,109.571,690.619,107.765,690.426,108.195Z" transform="translate(-305.93 -105.865)" fill="#2f2e41"/>
    <path id="Path_5" data-name="Path 5" d="M586.484,300.308c-11.26,49.99-40.14,166.71-69.44,191.12a17.092,17.092,0,0,1-6.52,3.85c-102.99,25.09-135.99-38.91-135.99-38.91s27.6-13.45,28.3-39.74l55.66,17.27,48.52-109.19,7.14-6.66.04-.04Z" transform="translate(-305.93 -105.865)" fill="#3f3d56"/>
    <path id="Path_6" data-name="Path 6" d="M806.075,761.941a27.982,27.982,0,0,0-2.938-42.805l28.872-95.154-49.539,14.7-19.822,88.106a28.133,28.133,0,0,0,43.427,35.156Z" transform="translate(-305.93 -105.865)" fill="#ffb8b8"/>
    <path id="Path_7" data-name="Path 7" d="M779.65,330.044l22.884,5.323S897.118,519.4,874.326,554.46s-50.715,151.156-50.715,151.156-41.3-8.21-57.077-29.249l28.9-137.686L765.624,422.966Z" transform="translate(-305.93 -105.865)" fill="#3f3d56"/>
    <path id="Path_8" data-name="Path 8" d="M345.51,603.32l.822-296.389a22.652,22.652,0,0,1,22.689-22.564l223.839.621a22.652,22.652,0,0,1,22.564,22.689L614.6,604.066a22.652,22.652,0,0,1-22.689,22.564l-223.839-.621A22.652,22.652,0,0,1,345.51,603.32Z" transform="translate(-305.93 -105.865)" fill="#e6e6e6"/>
    <path id="Path_9" data-name="Path 9" d="M362.928,513.846l.528-190.546a21.214,21.214,0,0,1,21.249-21.132l192.371.533a21.215,21.215,0,0,1,21.133,21.249L597.478,587.7a21.215,21.215,0,0,1-21.25,21.132l-119.17-.33a94.5,94.5,0,0,1-94.13-94.653Z" transform="translate(-305.93 -105.865)" fill="#fff"/>
    <path id="Path_10" data-name="Path 10" d="M555.034,385.868h-150a9,9,0,1,1,0-18h150a9,9,0,0,1,0,18Z" transform="translate(-305.93 -105.865)" fill="#00796b"/>
    <path id="Path_11" data-name="Path 11" d="M438.034,344.368h-33a9,9,0,0,1,0-18h33a9,9,0,1,1,0,18Z" transform="translate(-305.93 -105.865)" fill="#00796b"/>
    <path id="Path_12" data-name="Path 12" d="M555.034,427.368h-150a9,9,0,1,1,0-18h150a9,9,0,0,1,0,18Z" transform="translate(-305.93 -105.865)" fill="#00796b"/>
    <path id="Path_13" data-name="Path 13" d="M555.034,468.868h-150a9,9,0,0,1,0-18h150a9,9,0,0,1,0,18Z" transform="translate(-305.93 -105.865)" fill="#00796b"/>
    <circle id="Ellipse_8" data-name="Ellipse 8" cx="35.811" cy="35.811" r="35.811" transform="translate(201.156 400.732)" fill="#00796b"/>
    <path id="Path_14" data-name="Path 14" d="M538.012,561.045a3.983,3.983,0,0,1-3.186-1.594l-9.77-13.027a3.983,3.983,0,1,1,6.374-4.78l6.392,8.522,16.416-24.624a3.984,3.984,0,0,1,6.629,4.419l-19.54,29.309a3.985,3.985,0,0,1-3.2,1.773Z" transform="translate(-305.93 -105.865)" fill="#fff"/>
    <circle id="Ellipse_9" data-name="Ellipse 9" cx="17" cy="17" r="17" transform="translate(143.604 75.503)" fill="#f2f2f2"/>
    <circle id="Ellipse_10" data-name="Ellipse 10" cx="17" cy="17" r="17" transform="translate(81.604 564.503)" fill="#f2f2f2"/>
    <circle id="Ellipse_11" data-name="Ellipse 11" cx="17" cy="17" r="17" transform="translate(472.604 141.503)" fill="#f2f2f2"/>
  </g>
</svg>
