<svg xmlns="http://www.w3.org/2000/svg" width="717.67" height="544.562" viewBox="0 0 717.67 544.562">
  <g id="undraw_personal_file_re_5joy" transform="translate(0 0)">
    <path id="Path_109" data-name="Path 109" d="M528.351,230.246c-8.744,15.063,7.721,40.443-8.873,45.714l1.367-1.367c10.016-12.32-10.919-38.4-.9-50.717a30.1,30.1,0,0,0,3.98-5.916" transform="translate(-241.165 -177.719)" fill="#2f2e41"/>
    <path id="Path_110" data-name="Path 110" d="M610.237,451.231a10.5,10.5,0,0,0-10.191-12.456l-21.613-62.793L566.47,391.231,589.321,449.9a10.552,10.552,0,0,0,20.915,1.327Z" transform="translate(-241.165 -177.719)" fill="#ffb8b8"/>
    <path id="Path_111" data-name="Path 111" d="M515.231,299.624s-.672-22.73,19.654-9.709,64.582,135,64.582,135l-22.023,11.915-50-111.623Z" transform="translate(-241.165 -177.719)" fill="#00796b"/>
    <path id="Path_112" data-name="Path 112" d="M334.034,511.488l-10.15,4.337-21.56-37.085,14.981-6.4Z" fill="#ffb6b6"/>
    <path id="Path_113" data-name="Path 113" d="M588.07,704.5l-7.279,3.11-4.236-6.317-.391,8.294-19.305,8.249a4.719,4.719,0,0,1-5.846-6.857l10.867-17.235-2.969-6.947,16.629-5.961Z" transform="translate(-241.165 -177.719)" fill="#2f2e41"/>
    <path id="Path_114" data-name="Path 114" d="M174.924,524.067l-11.024-.539-3.169-42.779,16.272.8Z" fill="#ffb6b6"/>
    <path id="Path_115" data-name="Path 115" d="M420.975,721.171l-7.906-.386-1.046-7.533-3.979,7.288-20.969-1.025a4.719,4.719,0,0,1-2.258-8.723l17.31-10.746.369-7.546,17.562,1.912Z" transform="translate(-241.165 -177.719)" fill="#2f2e41"/>
    <path id="Path_117" data-name="Path 117" d="M443.939,423.7s-22.419,61.1-22.781,67.935-6.756,93.3-12.118,98.321-21.756,82.908-9,89,53-4,53-4l14-92,4.756-70.484s14.479,165.976,40.739,165.488S570.8,667.476,570.8,667.476L534.039,566.959s.52-119-8-143S443.939,423.7,443.939,423.7Z" transform="translate(-241.165 -177.719)" fill="#2f2e41"/>
    <path id="Path_118" data-name="Path 118" d="M510.463,266.293l-30.024,2.75L475.6,283.891s-25.126,13.8-19.562,20.068-1.244,48.516-1.244,48.516l1.538,34.293s-1.652,23.759-6.595,29.233S431.863,434.9,441,428.477c32.039-22.517,88.039-3.518,88.039-3.518l-8-49s18.171-80.225,11-87-13.937-7.632-13.937-7.632Z" transform="translate(-241.165 -177.719)" fill="#00796b"/>
    <path id="Path_119" data-name="Path 119" d="M352.7,421.721a10.5,10.5,0,0,0,7.9-14.022l50.639-42.962-18.555-5.6-46.351,42.618a10.552,10.552,0,0,0,6.367,19.967Z" transform="translate(-241.165 -177.719)" fill="#ffb8b8"/>
    <path id="Path_120" data-name="Path 120" d="M481.3,309.344s9.977-20.435-13.908-16.944-114.465,96.4-114.465,96.4l15.158,19.931,91.544-81.112Z" transform="translate(-241.165 -177.719)" fill="#00796b"/>
    <path id="Path_121" data-name="Path 121" d="M442.407,274.682,347.7,396.008a10.081,10.081,0,0,0,1.741,14.127c21.992,53.4,87.788,93,165.186,128.938a10.074,10.074,0,0,0,14.127-1.741l94.7-121.326a10.074,10.074,0,0,0-1.741-14.127C556.768,365.2,500.942,322.711,456.534,272.941a10.081,10.081,0,0,0-14.127,1.741Z" transform="translate(-241.165 -177.719)" fill="#e6e6e6"/>
    <path id="Path_122" data-name="Path 122" d="M616.814,413.245l-28.826,36.93a107.913,107.913,0,0,1-151.023,18.612L356.18,405.73a5.733,5.733,0,0,1-1-8.037l91.511-117.238a5.733,5.733,0,0,1,8.039-.983C495.6,332.241,550.3,373.305,615.824,405.214a5.728,5.728,0,0,1,.99,8.031Z" transform="translate(-241.165 -177.719)" fill="#fff"/>
    <path id="Path_123" data-name="Path 123" d="M440.518,340.915l-18.773,24.051a3.051,3.051,0,1,1-4.81-3.755l18.773-24.051a3.051,3.051,0,1,1,4.81,3.755Z" transform="translate(-241.165 -177.719)" fill="#ccc"/>
    <path id="Path_124" data-name="Path 124" d="M475.731,323.074,434.5,375.892a3.051,3.051,0,1,1-4.81-3.755l41.228-52.819a3.051,3.051,0,1,1,4.81,3.755Z" transform="translate(-241.165 -177.719)" fill="#ccc"/>
    <circle id="Ellipse_23" data-name="Ellipse 23" cx="20.096" cy="20.096" r="20.096" transform="translate(144.155 193.264)" fill="#00796b"/>
    <path id="Path_125" data-name="Path 125" d="M477.92,364.818l-50.636,64.871a3.071,3.071,0,0,1-4.81-3.755l50.636-64.871a3.071,3.071,0,0,1,4.81,3.755Z" transform="translate(-241.165 -177.719)" fill="#ccc"/>
    <path id="Path_126" data-name="Path 126" d="M510.769,350.007l-70.676,90.544a3.071,3.071,0,0,1-4.81-3.755l70.676-90.544a3.071,3.071,0,0,1,4.81,3.755Z" transform="translate(-241.165 -177.719)" fill="#ccc"/>
    <path id="Path_127" data-name="Path 127" d="M510.523,390.267l-50.636,64.871a3.071,3.071,0,0,1-4.81-3.755l50.636-64.871a3.071,3.071,0,0,1,4.81,3.755Z" transform="translate(-241.165 -177.719)" fill="#ccc"/>
    <path id="Path_128" data-name="Path 128" d="M577.523,398.267l-50.636,64.871a3.071,3.071,0,0,1-4.81-3.755l50.636-64.871a3.071,3.071,0,0,1,4.81,3.755Z" transform="translate(-241.165 -177.719)" fill="#00796b"/>
    <path id="Path_129" data-name="Path 129" d="M543.372,375.456,472.7,466a3.071,3.071,0,0,1-4.81-3.755L538.562,371.7a3.071,3.071,0,0,1,4.81,3.755Z" transform="translate(-241.165 -177.719)" fill="#ccc"/>
    <path id="Path_130" data-name="Path 130" d="M460.126,227.962a29.823,29.823,0,1,0,51.3-20.685l-.143-.143c-.239-.251-.477-.5-.728-.74a.012.012,0,0,1-.012-.012c-.31-.286-.62-.573-.942-.847a29.815,29.815,0,0,0-49.47,22.427Z" transform="translate(-241.165 -177.719)" fill="#2f2e41"/>
    <circle id="Ellipse_24" data-name="Ellipse 24" cx="25.008" cy="25.008" r="25.008" transform="translate(231.124 32.136)" fill="#ffb8b8"/>
    <path id="Path_131" data-name="Path 131" d="M470.637,241.527c-2.444-11.016,1.089-23.357,8.792-30.711a28.2,28.2,0,0,1,29.448-5.708c.629.254,1.258.532,1.875.822l.287.135v.042c.056.039.111.079.167.12a.958.958,0,0,0,.413.228,15.417,15.417,0,0,1,11.634,4.85c3.876,4.206,5.7,11,5.142,19.137l-.018.254-.217.135a85.468,85.468,0,0,1-9.118,5.027c-10.979,5.162-21,6.119-30.634,2.92l-.177-.059-4.043-6.776c-.83,4.673-.387,20.175-5.149,21.014l-8.3-10.965Z" transform="translate(-241.165 -177.719)" fill="#2f2e41"/>
    <path id="Path_132" data-name="Path 132" d="M417.994,263.3c8.51-4.392-2.435-20.334-.236-29.655S435.8,221.327,436.8,211.8s3.382-19.346,9.667-26.572c4.016-4.618,9.933-8.027,16.025-7.448a14.409,14.409,0,0,1,12.628,17.792c1.735-2.458,6.223-1.925,7.335.871.988,2.485-1.194,5.5-3.763,5.716-3.36,4.15-7.209,8.554-12.473,9.391a5.681,5.681,0,0,1-4.841-1.117c-1.239-1.189-1.335-3.567.134-4.456-6.616,2.628-10.5,9.782-11.477,16.833s.376,14.185,1.271,21.248,1.281,14.492-1.489,21.05c-3.272,7.749-10.8,13.3-19.025,15.084s-16.975.04-24.417-3.881-13.646-9.909-18.715-16.622C396.4,265.89,408.478,268.213,417.994,263.3Z" transform="translate(-241.165 -177.719)" fill="#2f2e41"/>
    <path id="Path_133" data-name="Path 133" d="M485.351,233.246c-8.744,15.063,7.721,40.443-8.873,45.714l1.367-1.367c10.016-12.32-10.919-38.4-.9-50.717a30.1,30.1,0,0,0,3.98-5.916" transform="translate(-241.165 -177.719)" fill="#2f2e41"/>
    <path id="Path_134" data-name="Path 134" d="M471.8,241.3s7.408-27.652,39.163-34.034c.036-.012.155-.06.31-.131.1-.06.215-.119.334-.179-.358-.2-.7-.382-1.062-.561a.012.012,0,0,1-.012-.012c-.31-.286-.62-.573-.942-.847l-.907.036S476.827,200.525,471.8,241.3Z" transform="translate(-241.165 -177.719)" fill="#fd6584"/>
    <path id="Path_135" data-name="Path 135" d="M241.165,721.091a1.186,1.186,0,0,0,1.19,1.19h715.29a1.19,1.19,0,0,0,0-2.38H242.355a1.187,1.187,0,0,0-1.19,1.19Z" transform="translate(-241.165 -177.719)" fill="#ccc"/>
  </g>
</svg>
